<svg width="353" height="353" viewBox="0 0 353 353" fill="none" xmlns="http://www.w3.org/2000/svg">
<rect x="7.5" y="7.5" width="338" height="338" rx="48.5" fill="#332F2F"/>
<rect x="7.5" y="7.5" width="338" height="338" rx="48.5" stroke="#282424" stroke-width="15"/>
<path d="M128.526 189.055H162.279C184.78 189.055 199.278 195.72 205.772 209.05C208.108 213.949 209.276 219.759 209.276 226.481C209.276 233.203 208.08 238.957 205.687 243.742C203.294 248.527 200.076 252.458 196.031 255.534C188.17 261.459 177.66 264.421 164.5 264.421H145.616V308H128.526V189.055ZM161.168 250.749C171.479 250.749 179.112 248.755 184.068 244.768C189.024 240.78 191.502 234.571 191.502 226.14C191.502 214.917 186.29 207.683 175.865 204.436C172.219 203.296 167.805 202.727 162.621 202.727H145.616V250.749H161.168ZM233.373 292.277C231.493 289.03 229.983 285.214 228.844 280.827C227.761 276.441 227.22 270.716 227.22 263.652C227.22 256.588 228.73 250.094 231.749 244.169C234.825 238.188 238.813 233.289 243.712 229.472C253.225 222.124 265.046 218.449 279.173 218.449C286.522 218.449 292.076 218.62 295.836 218.962C295.836 218.962 298.599 219.247 304.125 219.816V308H288.744L288.06 297.832C284.642 302.389 279.43 305.778 272.423 308C269.745 308.854 266.983 309.282 264.134 309.282C261.343 309.282 258.58 308.997 255.846 308.427C253.111 307.858 250.377 306.918 247.643 305.607C244.965 304.297 242.402 302.56 239.952 300.395C237.503 298.173 235.309 295.467 233.373 292.277ZM287.035 232.377C283.389 231.922 279.743 231.694 276.097 231.694C272.508 231.694 268.663 232.349 264.562 233.659C260.46 234.912 256.957 236.906 254.051 239.641C248.013 245.337 244.994 254.025 244.994 265.703C244.994 276.754 247.586 284.929 252.77 290.227C256.7 294.157 261.428 296.123 266.954 296.123C274.075 296.123 279.942 293.531 284.557 288.347C285.696 287.036 286.522 285.869 287.035 284.843V232.377Z" fill="white"/>
</svg>
